<mxfile host="app.diagrams.net" agent="Mozilla/5.0 (Macintosh; Intel Mac OS X 10_15_7) AppleWebKit/605.1.15 (KHTML, like Gecko) Version/17.6 Safari/605.1.15" version="24.7.17">
  <diagram name="Page-1" id="TaI290nxYZMiwjXGb0RB">
    <mxGraphModel dx="795" dy="539" grid="1" gridSize="10" guides="1" tooltips="1" connect="1" arrows="1" fold="1" page="1" pageScale="1" pageWidth="1169" pageHeight="827" math="0" shadow="0">
      <root>
        <mxCell id="0" />
        <mxCell id="1" parent="0" />
        <mxCell id="YObOD3WKvlDWgrV_L_7Z-7" value="" style="edgeStyle=orthogonalEdgeStyle;rounded=0;orthogonalLoop=1;jettySize=auto;html=1;curved=1;strokeWidth=36;endArrow=none;endFill=0;exitX=0;exitY=0.75;exitDx=0;exitDy=0;endSize=13;fontColor=#7a7a7a;fillColor=#647687;strokeColor=#314354;" edge="1" parent="1" source="YObOD3WKvlDWgrV_L_7Z-1" target="YObOD3WKvlDWgrV_L_7Z-6">
          <mxGeometry relative="1" as="geometry" />
        </mxCell>
        <mxCell id="YObOD3WKvlDWgrV_L_7Z-35" value="змішані відходи" style="edgeLabel;html=1;align=center;verticalAlign=middle;resizable=0;points=[];fontColor=#FFFF66;labelBackgroundColor=none;" vertex="1" connectable="0" parent="YObOD3WKvlDWgrV_L_7Z-7">
          <mxGeometry x="0.1744" y="-11" relative="1" as="geometry">
            <mxPoint x="-2" y="-11" as="offset" />
          </mxGeometry>
        </mxCell>
        <mxCell id="YObOD3WKvlDWgrV_L_7Z-9" value="" style="edgeStyle=orthogonalEdgeStyle;rounded=0;orthogonalLoop=1;jettySize=auto;html=1;curved=1;fillColor=#6d8764;strokeColor=#5D874F;exitX=0.025;exitY=0.386;exitDx=0;exitDy=0;endArrow=none;endFill=0;exitPerimeter=0;entryX=1;entryY=0.5;entryDx=0;entryDy=0;" edge="1" parent="1" source="YObOD3WKvlDWgrV_L_7Z-1" target="YObOD3WKvlDWgrV_L_7Z-8">
          <mxGeometry relative="1" as="geometry">
            <mxPoint x="160" y="261.5" as="sourcePoint" />
            <mxPoint x="360" y="383" as="targetPoint" />
            <Array as="points">
              <mxPoint x="190" y="253" />
              <mxPoint x="190" y="414" />
            </Array>
          </mxGeometry>
        </mxCell>
        <mxCell id="YObOD3WKvlDWgrV_L_7Z-36" value="відходи скла" style="edgeLabel;html=1;align=center;verticalAlign=middle;resizable=0;points=[];" vertex="1" connectable="0" parent="YObOD3WKvlDWgrV_L_7Z-9">
          <mxGeometry y="12" relative="1" as="geometry">
            <mxPoint y="-8" as="offset" />
          </mxGeometry>
        </mxCell>
        <mxCell id="YObOD3WKvlDWgrV_L_7Z-31" value="" style="edgeStyle=orthogonalEdgeStyle;rounded=0;orthogonalLoop=1;jettySize=auto;html=1;fillColor=#1ba1e2;strokeColor=#1BA1E2;strokeWidth=10;endArrow=none;endFill=0;curved=1;" edge="1" parent="1" source="YObOD3WKvlDWgrV_L_7Z-1" target="YObOD3WKvlDWgrV_L_7Z-30">
          <mxGeometry relative="1" as="geometry" />
        </mxCell>
        <mxCell id="YObOD3WKvlDWgrV_L_7Z-34" value="&lt;p style=&quot;margin: 0px; font-style: normal; font-variant-caps: normal; font-stretch: normal; line-height: normal; font-family: Arial; font-size-adjust: none; font-kerning: auto; font-variant-alternates: normal; font-variant-ligatures: normal; font-variant-numeric: normal; font-variant-east-asian: normal; font-variant-position: normal; font-variant-emoji: normal; font-feature-settings: normal; font-optical-sizing: auto; font-variation-settings: normal; color: rgb(38, 38, 38);&quot;&gt;ресурсоцінні відходи&lt;/p&gt;" style="edgeLabel;html=1;align=center;verticalAlign=middle;resizable=0;points=[];" vertex="1" connectable="0" parent="YObOD3WKvlDWgrV_L_7Z-31">
          <mxGeometry x="0.0244" y="-1" relative="1" as="geometry">
            <mxPoint x="11" as="offset" />
          </mxGeometry>
        </mxCell>
        <mxCell id="YObOD3WKvlDWgrV_L_7Z-1" value="Всі побутові відходи" style="rounded=0;whiteSpace=wrap;html=1;direction=west;" vertex="1" parent="1">
          <mxGeometry x="40" y="210" width="120" height="70" as="geometry" />
        </mxCell>
        <mxCell id="YObOD3WKvlDWgrV_L_7Z-6" value="сортування" style="rounded=0;whiteSpace=wrap;html=1;fillColor=#f5f5f5;fontColor=#333333;strokeColor=#666666;" vertex="1" parent="1">
          <mxGeometry x="300" y="197" width="120" height="60" as="geometry" />
        </mxCell>
        <mxCell id="YObOD3WKvlDWgrV_L_7Z-47" style="edgeStyle=orthogonalEdgeStyle;rounded=0;orthogonalLoop=1;jettySize=auto;html=1;entryX=0;entryY=0.5;entryDx=0;entryDy=0;curved=1;fillColor=#60a917;strokeColor=#2D7600;" edge="1" parent="1" source="YObOD3WKvlDWgrV_L_7Z-8" target="YObOD3WKvlDWgrV_L_7Z-37">
          <mxGeometry relative="1" as="geometry" />
        </mxCell>
        <mxCell id="YObOD3WKvlDWgrV_L_7Z-8" value="Зберігання для накопичення товарних партій" style="rounded=0;whiteSpace=wrap;html=1;direction=west;fillColor=#f5f5f5;strokeColor=#666666;fontColor=#333333;" vertex="1" parent="1">
          <mxGeometry x="300" y="384" width="120" height="60" as="geometry" />
        </mxCell>
        <mxCell id="YObOD3WKvlDWgrV_L_7Z-38" value="" style="edgeStyle=orthogonalEdgeStyle;rounded=0;orthogonalLoop=1;jettySize=auto;html=1;curved=1;entryX=0.5;entryY=0;entryDx=0;entryDy=0;strokeWidth=5;fillColor=#1ba1e2;strokeColor=#1BA1E2;exitX=1;exitY=0.617;exitDx=0;exitDy=0;exitPerimeter=0;" edge="1" parent="1" source="YObOD3WKvlDWgrV_L_7Z-30" target="YObOD3WKvlDWgrV_L_7Z-37">
          <mxGeometry relative="1" as="geometry">
            <mxPoint x="420" y="330" as="sourcePoint" />
            <mxPoint x="570" y="470" as="targetPoint" />
          </mxGeometry>
        </mxCell>
        <mxCell id="YObOD3WKvlDWgrV_L_7Z-30" value="сортування (папір, пластмаси, метал, скло)" style="whiteSpace=wrap;html=1;rounded=0;fillColor=#f5f5f5;fontColor=#333333;strokeColor=#666666;" vertex="1" parent="1">
          <mxGeometry x="300" y="280" width="120" height="60" as="geometry" />
        </mxCell>
        <mxCell id="YObOD3WKvlDWgrV_L_7Z-37" value="Заводи з рециклінгу" style="whiteSpace=wrap;html=1;fillColor=#f5f5f5;strokeColor=#666666;fontColor=#333333;rounded=0;" vertex="1" parent="1">
          <mxGeometry x="510" y="470" width="120" height="60" as="geometry" />
        </mxCell>
        <mxCell id="YObOD3WKvlDWgrV_L_7Z-39" value="Спалювання (цементний завод або сміттєспалювальний)" style="whiteSpace=wrap;html=1;" vertex="1" parent="1">
          <mxGeometry x="560" y="300" width="120" height="60" as="geometry" />
        </mxCell>
        <mxCell id="YObOD3WKvlDWgrV_L_7Z-40" value="" style="edgeStyle=orthogonalEdgeStyle;orthogonalLoop=1;jettySize=auto;html=1;rounded=0;entryX=-0.017;entryY=0.383;entryDx=0;entryDy=0;entryPerimeter=0;curved=1;strokeWidth=2.5;fillColor=#fa6800;strokeColor=#C73500;" edge="1" parent="1" target="YObOD3WKvlDWgrV_L_7Z-39">
          <mxGeometry width="80" relative="1" as="geometry">
            <mxPoint x="420" y="310" as="sourcePoint" />
            <mxPoint x="500" y="320" as="targetPoint" />
          </mxGeometry>
        </mxCell>
        <mxCell id="YObOD3WKvlDWgrV_L_7Z-41" value="Полігон" style="whiteSpace=wrap;html=1;" vertex="1" parent="1">
          <mxGeometry x="710" y="250" width="120" height="60" as="geometry" />
        </mxCell>
        <mxCell id="YObOD3WKvlDWgrV_L_7Z-43" value="" style="edgeStyle=orthogonalEdgeStyle;orthogonalLoop=1;jettySize=auto;html=1;rounded=0;entryX=0;entryY=0.5;entryDx=0;entryDy=0;curved=1;strokeWidth=2.5;exitX=1;exitY=0.383;exitDx=0;exitDy=0;exitPerimeter=0;" edge="1" parent="1" source="YObOD3WKvlDWgrV_L_7Z-30" target="YObOD3WKvlDWgrV_L_7Z-41">
          <mxGeometry width="80" relative="1" as="geometry">
            <mxPoint x="420" y="290" as="sourcePoint" />
            <mxPoint x="500" y="290" as="targetPoint" />
          </mxGeometry>
        </mxCell>
        <mxCell id="YObOD3WKvlDWgrV_L_7Z-44" value="" style="edgeStyle=orthogonalEdgeStyle;orthogonalLoop=1;jettySize=auto;html=1;rounded=0;entryX=0.025;entryY=0.6;entryDx=0;entryDy=0;entryPerimeter=0;curved=1;strokeWidth=0.5;" edge="1" parent="1" target="YObOD3WKvlDWgrV_L_7Z-45">
          <mxGeometry width="80" relative="1" as="geometry">
            <mxPoint x="420" y="300" as="sourcePoint" />
            <mxPoint x="500" y="170" as="targetPoint" />
            <Array as="points">
              <mxPoint x="510" y="300" />
              <mxPoint x="510" y="222" />
            </Array>
          </mxGeometry>
        </mxCell>
        <mxCell id="YObOD3WKvlDWgrV_L_7Z-45" value="Стабілізація" style="whiteSpace=wrap;html=1;" vertex="1" parent="1">
          <mxGeometry x="560" y="180" width="120" height="70" as="geometry" />
        </mxCell>
      </root>
    </mxGraphModel>
  </diagram>
</mxfile>
